PathFileType	4	(X/Y/Z)	s02c0202.trc
DataRate	CameraRate	NumFrames	NumMarkers	Units	OrigDataRate	OrigDataStartFrame	OrigNumFrames
200	200	4	50	mm	200	250	2000
Frame#	Time	racr			lacr			c7			jug			rlel			rdr			llel			ldr			s2			lic			ric			lasi			rasi			rpsi			lpsi			rgt			lgt			rth1			rth2			rth3			rth4			rlfc			rmfc			rsh1			rsh2			rsh3			rsh4			rlmal			rmmal			rtoe			rmt5			rmt1			lth1			lth2			lth4			lth3			llfc			lmfc			lsh1			lsh2			lsh3			lsh4			llmal			lmmal			lcal			ltoe			lmt5			SBIKE			LBIKE			RBIKE			
		X1	Y1	Z1	X2	Y2	Z2	X3	Y3	Z3	X4	Y4	Z4	X5	Y5	Z5	X6	Y6	Z6	X7	Y7	Z7	X8	Y8	Z8	X9	Y9	Z9	X10	Y10	Z10	X11	Y11	Z11	X12	Y12	Z12	X13	Y13	Z13	X14	Y14	Z14	X15	Y15	Z15	X16	Y16	Z16	X17	Y17	Z17	X18	Y18	Z18	X19	Y19	Z19	X20	Y20	Z20	X21	Y21	Z21	X22	Y22	Z22	X23	Y23	Z23	X24	Y24	Z24	X25	Y25	Z25	X26	Y26	Z26	X27	Y27	Z27	X28	Y28	Z28	X29	Y29	Z29	X30	Y30	Z30	X31	Y31	Z31	X32	Y32	Z32	X33	Y33	Z33	X34	Y34	Z34	X35	Y35	Z35	X36	Y36	Z36	X37	Y37	Z37	X38	Y38	Z38	X39	Y39	Z39	X40	Y40	Z40	X41	Y41	Z41	X42	Y42	Z42	X43	Y43	Z43	X44	Y44	Z44	X45	Y45	Z45	X46	Y46	Z46	X47	Y47	Z47	X48	Y48	Z48	X49	Y49	Z49	X50	Y50	Z50	
250	1.2500	452.250007	1307.758123	-144.882555	453.724787	1308.819544	-509.023558	477.752858	1352.931615	-332.599692	424.829041	1226.813193	-324.415168	571.553397	1065.729653	-113.252918	715.745498	887.414920	-127.961526	553.843023	1057.631237	-550.824959	702.710257	885.089568	-517.857230	0.302220	1107.318931	-340.194200	142.418959	1088.656056	-467.801372	120.543217	1108.282805	-186.007148	193.517147	1062.474896	-438.490936	175.124398	1086.034985	-208.356589	6.186241	1126.735936	-293.509834	18.984941	1127.080651	-377.530708	104.371547	1034.143840	-142.242876	97.778810	996.297826	-498.620359	194.960611	1012.925050	-139.456547	282.386304	1004.452220	-149.617008	355.612099	965.373628	-127.514138	291.052232	1027.299975	-178.862650	476.695280	877.969058	-164.162298	470.532731	855.707950	-276.283184	454.560550	767.566203	-146.638348	437.532242	680.315031	-162.548394	386.650820	612.182544	-155.521026	455.316949	675.783694	-197.566396	330.265832	504.042765	-159.976016	343.042454	524.438831	-239.398710	541.258282	440.969197	-191.931445	430.450621	426.905726	-138.009499	461.321454	440.739709	-245.003601	205.029058	903.413958	-511.339320	274.620109	851.080246	-507.471966	300.016646	871.360395	-489.742229	306.994342	767.784779	-504.310799	362.011949	684.579063	-481.249841	362.549073	655.179421	-375.689528	312.501345	593.389540	-500.826504	281.508538	513.875341	-485.625413	212.316988	456.316675	-489.200878	298.967109	505.070314	-449.650338	141.020787	382.338623	-473.482833	159.371715	366.642881	-399.806845	64.466963	385.187573	-432.413251	256.025088	171.329277	-444.430192	164.594243	231.712334	-502.339527	-165.501332	855.613858	-320.753759	33.080784	81.323638	-515.441923	32.575988	81.485998	-115.953267	
251	1.2550	452.268033	1307.763134	-144.894282	453.719013	1308.771604	-509.044887	477.732040	1352.942454	-332.614543	424.865242	1226.806541	-324.421185	571.532766	1065.710940	-113.231884	715.756414	887.430524	-127.969825	553.843441	1057.641479	-550.826101	702.700291	885.092913	-517.852263	0.330408	1107.293073	-340.204504	142.439044	1088.656672	-467.788490	120.530901	1108.291303	-186.011932	193.513975	1062.465132	-438.466029	175.112082	1086.030953	-208.319864	6.164025	1126.723882	-293.519045	18.984401	1127.077717	-377.543493	104.583979	1034.289049	-141.470515	97.756651	996.291397	-498.628648	194.963255	1012.916145	-139.468278	282.415329	1004.430227	-149.612892	355.575733	965.379176	-127.502394	291.052498	1027.278987	-178.849459	476.682410	877.939894	-164.161120	470.533561	855.691618	-276.292888	454.552878	767.548918	-146.639575	437.578787	680.329171	-162.544314	386.644000	612.153172	-155.522446	455.321662	675.761225	-197.536427	330.264966	504.036709	-159.977307	343.048294	524.435749	-239.407932	541.262949	440.966109	-191.935194	430.436591	426.888987	-138.004894	461.327832	440.724683	-244.989316	205.015948	903.399500	-511.357101	274.600349	851.083498	-507.494869	300.007714	871.354077	-489.751581	306.980127	767.767968	-504.313470	362.191288	684.549247	-481.394945	362.546416	655.180595	-375.675722	312.502150	593.395568	-500.821749	281.513030	513.884117	-485.614338	212.316233	456.331637	-489.187743	298.962429	505.078610	-449.644733	141.016711	382.349000	-473.479696	159.340300	366.664306	-399.794362	64.460257	385.206627	-432.402882	256.027070	171.356444	-444.434141	164.585227	231.725360	-502.320014	-165.476410	855.731297	-320.376411	33.056612	81.299940	-515.441967	32.587226	81.473154	-115.948293	
252	1.2600	452.304788	1307.765345	-144.917590	453.710818	1308.743495	-509.085221	477.712701	1352.954601	-332.620629	424.923972	1226.795765	-324.436971	571.514158	1065.697226	-113.223842	715.740729	887.435128	-127.948676	553.844462	1057.627790	-550.827867	702.708097	885.088406	-517.838918	0.349233	1107.279818	-340.224070	142.433586	1088.631672	-467.773668	120.512034	1108.283596	-186.001269	193.502853	1062.456119	-438.464043	175.112066	1086.030952	-208.319971	6.143691	1126.718502	-293.532274	18.993131	1127.064336	-377.563488	104.570517	1034.317188	-141.476521	97.758276	996.275190	-498.631951	194.973973	1012.912692	-139.477974	282.407297	1004.415486	-149.609914	355.581277	965.352460	-127.506825	291.070326	1027.268184	-178.855656	476.676336	877.932798	-164.175158	470.510196	855.677071	-276.270292	454.527384	767.522871	-146.644254	437.526221	680.301647	-162.556297	386.637680	612.138601	-155.533158	455.325567	675.748240	-197.522446	330.264001	503.996631	-159.972034	343.037033	524.406167	-239.393594	541.266890	440.951104	-191.931051	430.439169	426.873855	-137.988972	461.330254	440.720602	-244.991570	204.998476	903.395480	-511.362464	274.597956	851.066508	-507.478657	299.991105	871.344609	-489.752381	306.975029	767.761758	-504.324199	362.089745	684.493640	-481.265664	362.546599	655.180534	-375.675753	312.487604	593.444692	-500.835079	281.530985	513.886781	-485.616565	212.314037	456.331250	-489.180548	298.955484	505.087774	-449.622179	141.018589	382.353858	-473.476067	159.339657	366.664286	-399.796371	64.456852	385.214248	-432.406834	256.025786	171.362400	-444.427444	164.586504	231.744982	-502.340088	-165.448621	856.541712	-317.766092	33.071973	81.317739	-515.453630	32.971000	81.307670	-115.838956	
253	1.2650	452.331246	1307.766182	-144.931714	453.716584	1308.713206	-509.099164	477.692486	1352.976227	-332.643375	424.923850	1226.796009	-324.437002	571.463829	1065.652787	-113.150267	715.728188	887.448791	-127.931061	553.844094	1057.613925	-550.834990	702.708026	885.072475	-517.832839	0.357755	1107.272085	-340.228310	142.446559	1088.640673	-467.739900	120.512926	1108.286543	-186.011896	193.517124	1062.446917	-438.444055	175.095577	1086.046756	-208.301931	6.144263	1126.740461	-293.533656	18.976197	1127.079001	-377.561808	104.554689	1034.319126	-141.453390	97.746602	996.266923	-498.640802	194.945749	1012.911528	-139.459932	282.394686	1004.423925	-149.589699	355.595433	965.332691	-127.524675	291.060368	1027.266132	-178.828570	476.664834	877.915164	-164.174625	470.507601	855.653914	-276.291344	454.512841	767.513601	-146.649606	437.541360	680.308231	-162.538594	386.644748	612.124715	-155.523926	455.313321	675.731823	-197.516134	330.260027	503.992297	-159.941223	343.039861	524.382685	-239.398056	541.270451	440.950305	-191.928602	430.447611	426.862648	-137.986661	461.334641	440.710995	-245.006392	204.980851	903.384337	-511.365986	274.580734	851.072617	-507.490410	299.972728	871.350924	-489.749537	306.970560	767.771299	-504.322271	362.016464	684.603769	-481.232606	362.533640	655.200867	-375.650144	312.515177	593.483899	-500.826581	281.539429	513.912210	-485.624977	212.330385	456.375197	-489.180331	298.970287	505.104311	-449.625614	141.034977	382.369921	-473.477986	159.395454	366.652847	-399.814352	64.479310	385.242044	-432.407335	256.002841	171.344349	-444.419772	164.581809	231.761060	-502.334468	-165.482208	856.660978	-317.512593	33.079779	81.316734	-515.465774	32.946159	81.226530	-115.798964	
